<svg version="1.1" xmlns="http://www.w3.org/2000/svg" viewBox="0 0 552.9103682674134 303.6659080894248" width="552.9103682674134" height="303.6659080894248" filter="invert(93%) hue-rotate(180deg)">
  <!-- svg-source:excalidraw -->
  
  <defs>
    <style class="style-fonts">
      @font-face {
        font-family: "Virgil";
        src: url("https://excalidraw.com/Virgil.woff2");
      }
      @font-face {
        font-family: "Cascadia";
        src: url("https://excalidraw.com/Cascadia.woff2");
      }
      @font-face {
        font-family: "Assistant";
        src: url("https://excalidraw.com/Assistant-Regular.woff2");
      }
    </style>
    
  </defs>
  <rect x="0" y="0" width="552.9103682674134" height="303.6659080894248" fill="#ffffff"></rect><g stroke-linecap="round" transform="translate(379.5121697480664 10) rotate(0 80.86966677987982 141.8329540447124)"><path d="M32 0 C54.29 -1.24, 73.42 -1.93, 129.74 0 M32 0 C56.18 -0.46, 80.68 0.02, 129.74 0 M129.74 0 C151.71 1.04, 162.98 8.72, 161.74 32 M129.74 0 C151.82 0.62, 160.01 10.63, 161.74 32 M161.74 32 C163.7 94.54, 161.25 157.39, 161.74 251.67 M161.74 32 C161.74 113.74, 160.99 196.23, 161.74 251.67 M161.74 251.67 C159.94 274.19, 151.34 283.33, 129.74 283.67 M161.74 251.67 C160.19 270.98, 152.39 284.85, 129.74 283.67 M129.74 283.67 C101.44 285, 74.15 283.43, 32 283.67 M129.74 283.67 C92.85 282.81, 57.67 283.66, 32 283.67 M32 283.67 C9.28 282.03, 0.19 273, 0 251.67 M32 283.67 C11.7 284.45, -1.14 272.79, 0 251.67 M0 251.67 C-0.51 164.82, 1.49 78.64, 0 32 M0 251.67 C-0.04 181.13, -0.75 109.99, 0 32 M0 32 C1.61 9.51, 10.93 -1.64, 32 0 M0 32 C1.85 10.35, 9.16 -1.91, 32 0" stroke="#1e1e1e" stroke-width="2" fill="none"></path></g><g stroke-linecap="round" transform="translate(382.00046718744727 11.658864959587277) rotate(0 80.45495053998309 18.66223079535689)"><path d="M9.33 0 C36.63 1.22, 67.57 0.43, 151.58 0 M9.33 0 C40.89 -1.87, 71.32 -1.51, 151.58 0 M151.58 0 C157.11 1.23, 162.04 4.81, 160.91 9.33 M151.58 0 C158.27 0.75, 162.38 4.4, 160.91 9.33 M160.91 9.33 C160.34 15.02, 161.1 22.03, 160.91 27.99 M160.91 9.33 C160.47 13.99, 161.26 18.87, 160.91 27.99 M160.91 27.99 C162.08 32.46, 158.45 38.55, 151.58 37.32 M160.91 27.99 C159.2 33.38, 159.95 35.28, 151.58 37.32 M151.58 37.32 C104.95 38.56, 60.26 35.07, 9.33 37.32 M151.58 37.32 C120.38 36.65, 87.41 35.87, 9.33 37.32 M9.33 37.32 C2.92 36.52, 1.23 36.18, 0 27.99 M9.33 37.32 C3.33 35.88, -1.04 32.89, 0 27.99 M0 27.99 C1.31 21.8, -1.46 13.95, 0 9.33 M0 27.99 C0.28 23.49, 0.64 19.52, 0 9.33 M0 9.33 C0.99 4.1, 3.54 -1.47, 9.33 0 M0 9.33 C0.32 4.17, 3.68 -0.38, 9.33 0" stroke="#1e1e1e" stroke-width="2" fill="none"></path></g><g transform="translate(437.5724433336212 14.147162398968192) rotate(0 26.82550048828125 15.023725676636587)"><text x="0" y="21.057253908373838" font-family="Virgil, Segoe UI Emoji" font-size="24.037961082618533px" fill="#1e1e1e" text-anchor="start" style="white-space: pre;" direction="ltr" dominant-baseline="alphabetic">User</text></g><g stroke-linecap="round"><g transform="translate(382.00046718744727 84.64892318142756) rotate(0 78.38136934049896 0)"><path d="M-0.56 1.04 C25.28 1.12, 129.7 0.47, 155.73 0.1 M1.35 0.53 C27.49 0.86, 131.81 1.85, 157.9 1.69" stroke="#1e1e1e" stroke-width="2" fill="none"></path></g></g><mask></mask><g transform="translate(429.2781185356847 53.13048894926925) rotate(0 8.292472839355469 13.165009896108671)"><text x="0" y="18.452077870385917" font-family="Virgil, Segoe UI Emoji" font-size="21.064015833773876px" fill="#1e1e1e" text-anchor="start" style="white-space: pre;" direction="ltr" dominant-baseline="alphabetic">id</text></g><g stroke-linecap="round"><g transform="translate(491.48555452020776 51.47162398968197) rotate(0 -0.4147162398968476 119.43827709028415)"><path d="M-0.06 -0.92 C-0.3 39.26, -0.6 199.84, -0.61 239.91 M-1.56 1.21 C-2 41.18, -1.62 198.95, -1.44 238.33" stroke="#1e1e1e" stroke-width="2" fill="none"></path></g></g><mask></mask><g stroke-linecap="round"><g transform="translate(382.22206404156816 126.38359452431649) rotate(0 78.38136934049896 0)"><path d="M-0.46 -1.11 C25.68 -1.05, 129.81 -1.14, 156.2 -0.76 M1.5 0.93 C27.49 1.21, 128.93 0.63, 154.96 0.39" stroke="#1e1e1e" stroke-width="2" fill="none"></path></g></g><mask></mask><g transform="translate(411.25220083434544 94.03572781236454) rotate(0 24.351234436035156 13.165009896108671)"><text x="0" y="18.452077870385917" font-family="Virgil, Segoe UI Emoji" font-size="21.064015833773876px" fill="#1e1e1e" text-anchor="start" style="white-space: pre;" direction="ltr" dominant-baseline="alphabetic">name</text></g><g stroke-linecap="round"><g transform="translate(381.39263156177446 169.51408347358574) rotate(0 78.38136934049896 0)"><path d="M-1.2 1 C24.67 0.99, 130.01 0.8, 156.35 0.56 M0.37 0.48 C25.95 0.06, 129.23 -1.29, 155.19 -1.27" stroke="#1e1e1e" stroke-width="2" fill="none"></path></g></g><mask></mask><g transform="translate(396.32241619805984 135.50735180204646) rotate(0 40.567848205566406 13.165009896108671)"><text x="0" y="18.452077870385917" font-family="Virgil, Segoe UI Emoji" font-size="21.064015833773876px" fill="#1e1e1e" text-anchor="start" style="white-space: pre;" direction="ltr" dominant-baseline="alphabetic">surname</text></g><g stroke-linecap="round"><g transform="translate(383.8809290011553 209.32684250368038) rotate(0 78.38136934049896 0)"><path d="M0.47 -0.93 C26.43 -1.08, 130.29 -0.71, 156.37 -0.64 M-0.74 1.19 C24.98 1.17, 129.05 0.67, 155.21 0.57" stroke="#1e1e1e" stroke-width="2" fill="none"></path></g></g><mask></mask><g transform="translate(409.59333587475805 177.80840827152213) rotate(0 24.50908660888672 13.165009896108671)"><text x="0" y="18.452077870385917" font-family="Virgil, Segoe UI Emoji" font-size="21.064015833773876px" fill="#1e1e1e" text-anchor="start" style="white-space: pre;" direction="ltr" dominant-baseline="alphabetic">email</text></g><g stroke-linecap="round"><g transform="translate(383.8809290011553 249.96903401356872) rotate(0 78.38136934049896 0)"><path d="M-0.12 0.49 C25.97 0.73, 131.79 0.91, 157.76 0.98 M-1.65 -0.3 C24.28 -0.34, 130.72 -0.51, 157.33 -0.63" stroke="#1e1e1e" stroke-width="2" fill="none"></path></g></g><mask></mask><g transform="translate(391.3458213192981 218.4505997814104) rotate(0 46.38732147216797 13.165009896108671)"><text x="0" y="18.452077870385917" font-family="Virgil, Segoe UI Emoji" font-size="21.064015833773876px" fill="#1e1e1e" text-anchor="start" style="white-space: pre;" direction="ltr" dominant-baseline="alphabetic">password</text></g><g transform="translate(417.88766067269455 259.09279129129874) rotate(0 13.270050048828125 13.1650098961087)"><text x="0" y="18.452077870385917" font-family="Virgil, Segoe UI Emoji" font-size="21.064015833773876px" fill="#1e1e1e" text-anchor="start" style="white-space: pre;" direction="ltr" dominant-baseline="alphabetic">url</text></g><g transform="translate(507.2447716362868 58.93651630782472) rotate(0 8.4501953125 8.294324797936412)"><text x="0" y="11.625325636787654" font-family="Virgil, Segoe UI Emoji" font-size="13.270919676698234px" fill="#1e1e1e" text-anchor="start" style="white-space: pre;" direction="ltr" dominant-baseline="alphabetic">PK</text></g><g stroke-linecap="round"><g transform="translate(184.72741655699213 267.4700568663014) rotate(0 91.09595085765648 -118.06534477058995)"><path d="M-0.32 -1.02 C12.05 -3.6, 65.32 23.95, 73.16 -15.27 C80.99 -54.49, 28.65 -203.48, 46.69 -236.33 C64.72 -269.18, 158.91 -216.17, 181.37 -212.39 M1.71 1.06 C14.01 -1.85, 64.24 22.51, 72.14 -16.86 C80.03 -56.22, 30.89 -202.75, 49.07 -235.12 C67.24 -267.49, 158.83 -214.65, 181.18 -211.07" stroke="#1e1e1e" stroke-width="2" fill="none"></path></g><g transform="translate(184.72741655699213 267.4700568663014) rotate(0 91.09595085765648 -118.06534477058995)"><path d="M156.18 -211.18 C159.67 -211.32, 168.25 -212.69, 181.18 -211.07 M156.18 -211.18 C162.63 -211.91, 170.61 -210.6, 181.18 -211.07" stroke="#1e1e1e" stroke-width="2" fill="none"></path></g><g transform="translate(184.72741655699213 267.4700568663014) rotate(0 91.09595085765648 -118.06534477058995)"><path d="M162.1 -227.22 C164.38 -224.05, 171.74 -222.1, 181.18 -211.07 M162.1 -227.22 C166.76 -223.39, 173.06 -217.53, 181.18 -211.07" stroke="#1e1e1e" stroke-width="2" fill="none"></path></g></g><mask></mask><g stroke-linecap="round" transform="translate(10 50.85551424580814) rotate(0 84.59222731124214 118.62535359277427)"><path d="M32 0 C56.07 -1.57, 80.14 -2.1, 137.18 0 M32 0 C67.8 1.64, 101.74 1.81, 137.18 0 M137.18 0 C160.38 0.07, 170.08 12.2, 169.18 32 M137.18 0 C160.42 -0.83, 168.23 12.54, 169.18 32 M169.18 32 C169.7 94.86, 166.98 158.92, 169.18 205.25 M169.18 32 C169.7 68.85, 169.24 106.13, 169.18 205.25 M169.18 205.25 C170.66 225.39, 156.65 235.71, 137.18 237.25 M169.18 205.25 C168.98 224.29, 158.8 237.12, 137.18 237.25 M137.18 237.25 C100.73 238.5, 66.56 238.21, 32 237.25 M137.18 237.25 C112.47 236.87, 88.85 236.75, 32 237.25 M32 237.25 C11.71 235.98, -1.36 225.87, 0 205.25 M32 237.25 C12.25 237.39, -0.07 227.15, 0 205.25 M0 205.25 C0.32 140.65, -0.74 75.68, 0 32 M0 205.25 C0.41 156.38, 0.72 109.26, 0 32 M0 32 C-1.26 11.15, 9.27 -0.85, 32 0 M0 32 C-0.03 9.33, 9.28 0.35, 32 0" stroke="#1e1e1e" stroke-width="2" fill="none"></path></g><g stroke-linecap="round" transform="translate(12.60283776342294 52.59073942142339) rotate(0 84.1584210173383 19.521283225671255)"><path d="M9.76 0 C56.49 -0.88, 105.41 -0.44, 158.56 0 M9.76 0 C42.59 -0.23, 76.93 -1.2, 158.56 0 M158.56 0 C165.96 1.53, 169.97 2.53, 168.32 9.76 M158.56 0 C164.11 1.88, 169.71 1.58, 168.32 9.76 M168.32 9.76 C167.57 18.6, 166.86 24.18, 168.32 29.28 M168.32 9.76 C167.82 16.53, 169.03 24.6, 168.32 29.28 M168.32 29.28 C166.45 34.25, 164.89 37.05, 158.56 39.04 M168.32 29.28 C168.6 35.66, 165.93 39.31, 158.56 39.04 M158.56 39.04 C105.57 39.86, 50.36 39.95, 9.76 39.04 M158.56 39.04 C126.21 40.16, 94.66 39.15, 9.76 39.04 M9.76 39.04 C1.89 38.33, 1.38 35.91, 0 29.28 M9.76 39.04 C3.18 39.61, 1.81 35.11, 0 29.28 M0 29.28 C-1.2 26.05, -0.38 18.3, 0 9.76 M0 29.28 C-0.27 26.02, -0.47 21.34, 0 9.76 M0 9.76 C-1.4 2.4, 3.23 -1.16, 9.76 0 M0 9.76 C-1.39 3.61, 1.59 0.15, 9.76 0" stroke="#1e1e1e" stroke-width="2" fill="none"></path></g><g transform="translate(63.57789309205191 60.126319936525306) rotate(0 39.34983825683594 11.248188464110285)"><text x="0" y="15.765460951296971" font-family="Virgil, Segoe UI Emoji" font-size="17.997101542576452px" fill="#1e1e1e" text-anchor="start" style="white-space: pre;" direction="ltr" dominant-baseline="alphabetic">Expenses</text></g><g stroke-linecap="round"><g transform="translate(12.60283776342294 128.94064714849316) rotate(0 81.98938954781931 0)"><path d="M-0.87 -0.93 C26.8 -0.83, 137.5 0.64, 164.92 0.99 M0.87 1.2 C28.57 0.94, 137.49 -0.32, 164.46 -0.61" stroke="#1e1e1e" stroke-width="2" fill="none"></path></g></g><mask></mask><g transform="translate(62.056755268456754 95.97136881180398) rotate(0 8.67413330078125 13.771016427180967)"><text x="0" y="19.30145662433685" font-family="Virgil, Segoe UI Emoji" font-size="22.033626283489557px" fill="#1e1e1e" text-anchor="start" style="white-space: pre;" direction="ltr" dominant-baseline="alphabetic">id</text></g><g stroke-linecap="round"><g transform="translate(127.12769935402764 94.23614363618873) rotate(0 -2.539716266961989 94.85867868155594)"><path d="M-0.34 1.2 C-1.16 32.66, -3.26 158.19, -3.96 189.76 M1.68 0.78 C0.72 32.36, -3.21 159.99, -4.32 191.32" stroke="#1e1e1e" stroke-width="2" fill="none"></path></g></g><mask></mask><g stroke-linecap="round"><g transform="translate(12.834635076329505 172.59643238385416) rotate(0 81.98938954781931 0)"><path d="M1.12 0.04 C28.59 0, 137.21 1, 164.52 0.92 M0.24 -0.98 C27.64 -0.85, 136.44 -0.99, 163.85 -0.72" stroke="#1e1e1e" stroke-width="2" fill="none"></path></g></g><mask></mask><g transform="translate(36.93015597289775 137.3359015671246) rotate(0 30.678695678710938 13.771016427180967)"><text x="0" y="19.30145662433685" font-family="Virgil, Segoe UI Emoji" font-size="22.033626283489557px" fill="#1e1e1e" text-anchor="start" style="white-space: pre;" direction="ltr" dominant-baseline="alphabetic">mount</text></g><g transform="translate(35.630859311535346 254.140170849738) rotate(0 29.59345245361328 11.559196481064589)"><text x="0" y="16.201369787860095" font-family="Virgil, Segoe UI Emoji" font-size="18.494714369703303px" fill="#1e1e1e" text-anchor="start" style="white-space: pre;" direction="ltr" dominant-baseline="alphabetic">userId</text></g><g transform="translate(143.61233852237217 102.04465692645726) rotate(0 8.838386535644531 8.676125878076107)"><text x="0" y="12.160458030711485" font-family="Virgil, Segoe UI Emoji" font-size="13.881801404921784px" fill="#1e1e1e" text-anchor="start" style="white-space: pre;" direction="ltr" dominant-baseline="alphabetic">PK</text></g><g transform="translate(140.22982297993735 260.74893286057414) rotate(0 7.873138427734375 8.294324797936383)"><text x="0" y="11.625325636787654" font-family="Virgil, Segoe UI Emoji" font-size="13.270919676698234px" fill="#1e1e1e" text-anchor="start" style="white-space: pre;" direction="ltr" dominant-baseline="alphabetic">FK</text></g><g transform="translate(18.339793205261117 175.74094798450068) rotate(0 49.72327423095703 12.179069561872694)"><text x="0" y="17.070183897920764" font-family="Virgil, Segoe UI Emoji" font-size="19.48651129899631px" fill="#1e1e1e" text-anchor="start" style="white-space: pre;" direction="ltr" dominant-baseline="alphabetic">description</text></g><g transform="translate(24.290728569030648 216.33289484980895) rotate(0 41.974700927734375 12.179069561872694)"><text x="0" y="17.070183897920764" font-family="Virgil, Segoe UI Emoji" font-size="19.48651129899631px" fill="#1e1e1e" text-anchor="start" style="white-space: pre;" direction="ltr" dominant-baseline="alphabetic">datetime</text></g><g stroke-linecap="round"><g transform="translate(14.638383980028038 209.53876336560683) rotate(0 81.98938954781931 0)"><path d="M1.2 -0.57 C28.65 -0.8, 136.37 -1.07, 163.66 -0.92 M0.36 1.75 C27.73 1.59, 135.17 0.73, 162.54 0.14" stroke="#1e1e1e" stroke-width="2" fill="none"></path></g></g><mask></mask><g stroke-linecap="round"><g transform="translate(14.007950716132996 246.1198643561682) rotate(0 81.98938954781931 0)"><path d="M-1 -1.05 C26.07 -1.07, 135.47 -0.9, 163.15 -0.67 M0.68 1.01 C28.07 1.18, 138.05 0.98, 165.43 0.52" stroke="#1e1e1e" stroke-width="2" fill="none"></path></g></g><mask></mask></svg>